<svg width="18" height="18" viewBox="0 0 18 18" fill="none" xmlns="http://www.w3.org/2000/svg">
<path d="M9 17C13.4183 17 17 13.4183 17 9C17 4.58172 13.4183 1 9 1C4.58172 1 1 4.58172 1 9C1 13.4183 4.58172 17 9 17Z" stroke="#E0E0E0" stroke-width="2" stroke-linecap="round" stroke-linejoin="round"/>
<path d="M6.672 6.59998C6.86008 6.06531 7.23132 5.61447 7.71996 5.32729C8.2086 5.04011 8.78311 4.93513 9.34174 5.03095C9.90036 5.12677 10.4071 5.4172 10.7721 5.8508C11.1371 6.2844 11.3368 6.8332 11.336 7.39998C11.336 8.99998 8.936 9.79998 8.936 9.79998" stroke="#E0E0E0" stroke-width="2" stroke-linecap="round" stroke-linejoin="round"/>
<path d="M9 13H9.008" stroke="#E0E0E0" stroke-width="2" stroke-linecap="round" stroke-linejoin="round"/>
</svg>
