<svg width="16" height="18" viewBox="0 0 16 18" fill="none" xmlns="http://www.w3.org/2000/svg">
<path d="M14.0909 7.54545C14.0909 12.6364 7.54545 17 7.54545 17C7.54545 17 1 12.6364 1 7.54545C1 5.80949 1.68961 4.14463 2.91712 2.91712C4.14463 1.68961 5.80949 1 7.54545 1C9.28142 1 10.9463 1.68961 12.1738 2.91712C13.4013 4.14463 14.0909 5.80949 14.0909 7.54545Z" fill="white" stroke="black" stroke-width="2" stroke-linecap="round" stroke-linejoin="round"/>
<path d="M7.54547 9.72728C8.75045 9.72728 9.72728 8.75045 9.72728 7.54547C9.72728 6.34048 8.75045 5.36365 7.54547 5.36365C6.34048 5.36365 5.36365 6.34048 5.36365 7.54547C5.36365 8.75045 6.34048 9.72728 7.54547 9.72728Z" fill="white" stroke="black" stroke-width="2" stroke-linecap="round" stroke-linejoin="round"/>
</svg>
