<svg width="157" height="145" viewBox="0 0 157 145" fill="none" xmlns="http://www.w3.org/2000/svg">
<path d="M26.9688 95.6999V90.7964C14.3891 90.7964 4.90342 81.3108 4.90342 68.7311C4.90342 55.4428 15.0094 44.214 26.9688 44.214H33.9071L34.2822 42.2158C38.3374 20.6433 58.9758 4.98667 83.3581 4.98667C110.854 4.98667 132.392 25.4486 132.392 51.5691V54.0208H134.844C144.957 54.0208 152.006 64.3572 152.006 73.6345C152.006 83.4192 144.629 90.7964 134.844 90.7964V95.6999C147.424 95.6999 156.909 86.2142 156.909 73.6345C156.909 62.5282 149.108 50.684 137.244 49.2596C136.021 21.5014 112.793 0.083252 83.3581 0.083252C57.3724 0.083252 35.231 16.4607 29.8839 39.3106H26.9688C12.3517 39.3106 0 52.7827 0 68.7311C0 84.1057 11.5941 95.6999 26.9688 95.6999Z" fill="rgb(50, 50, 206)"/>
<path d="M9.54722 126.524C9.15692 126.525 8.77345 126.422 8.43663 126.225C8.09981 126.028 7.82194 125.744 7.63186 125.403C7.44178 125.062 7.34643 124.676 7.35572 124.286C7.36501 123.896 7.47859 123.516 7.68467 123.184C15.8665 109.89 26.0944 100.268 38.083 94.5871C47.3811 90.18 57.4721 88.2154 68.0761 88.7575C74.9229 89.0986 82.6821 90.3257 90.1876 91.512C102.199 93.4095 114.622 95.3741 123.868 93.8817C136.314 91.8764 148.679 88.4573 151.229 71.0356C151.832 66.92 150.174 61.8249 146.906 57.7355C143.744 53.7801 139.619 51.4192 135.271 51.0869C129.097 50.6059 124.707 54.2552 120.601 63.2736C120.36 63.8012 119.92 64.2117 119.377 64.4147C118.834 64.6178 118.232 64.5968 117.705 64.3564C117.177 64.116 116.767 63.6758 116.563 63.1328C116.36 62.5897 116.381 61.9882 116.622 61.4606C119.942 54.1736 125.104 45.9131 135.612 46.7205C141.176 47.1461 146.396 50.0871 150.328 54.9985C154.33 60.0032 156.336 66.3866 155.575 71.6623C154.243 80.7652 150.445 87.3147 143.965 91.6869C138.162 95.6015 130.91 97.1725 124.585 98.1927C114.649 99.7958 101.879 97.7759 89.526 95.8259C81.7931 94.6046 74.4915 93.4503 67.8779 93.1181C51.7096 92.3107 28.7906 97.2687 11.4273 125.472C11.2314 125.795 10.9553 126.062 10.6259 126.246C10.2964 126.43 9.92478 126.526 9.54722 126.524Z" fill="rgb(50, 50, 206)"/>
<path d="M112.06 144.917C106.231 144.917 99.897 141.154 95.9037 134.884C95.7468 134.642 95.6393 134.371 95.5875 134.087C95.5357 133.803 95.5406 133.512 95.602 133.23C95.6633 132.948 95.7798 132.681 95.9448 132.445C96.1098 132.208 96.3201 132.006 96.5634 131.851C96.8067 131.696 97.0783 131.591 97.3626 131.541C97.6468 131.492 97.9381 131.499 98.2195 131.562C98.5009 131.626 98.767 131.745 99.0024 131.911C99.2378 132.078 99.4378 132.29 99.5909 132.535C103.963 139.411 110.912 141.71 115.095 139.962C120.228 137.813 121.941 129.148 119.939 123.406C115.768 111.455 92.849 107.992 78.6744 109.415C59.5884 111.344 43.8923 120.231 35.6085 133.797C35.4597 134.044 35.2636 134.258 35.0314 134.429C34.7993 134.6 34.5357 134.723 34.2558 134.791C33.9759 134.86 33.6852 134.872 33.4005 134.828C33.1158 134.784 32.8426 134.684 32.5967 134.533C32.3508 134.383 32.137 134.186 31.9677 133.953C31.7984 133.72 31.6768 133.455 31.6099 133.175C31.5431 132.895 31.5323 132.604 31.5783 132.319C31.6242 132.035 31.7259 131.762 31.8776 131.517C40.8784 116.774 57.7754 107.132 78.2226 105.066C86.8183 104.191 96.7169 105.025 104.706 107.284C115.036 110.199 121.726 115.276 124.055 121.957C126.468 128.874 124.862 140.612 116.768 143.987C115.276 144.606 113.676 144.922 112.06 144.917ZM9.54741 100.612C9.13814 100.612 8.73718 100.496 8.39017 100.279C8.04315 100.062 7.76401 99.7525 7.58451 99.3847C7.40501 99.0169 7.33237 98.606 7.37484 98.199C7.41732 97.7919 7.57321 97.405 7.82477 97.0822C8.06378 96.7907 13.7797 89.5358 25.3572 82.1147C35.9903 75.3 53.8026 67.054 78.2897 66.4711H78.3363C78.6234 66.4678 78.9083 66.5212 79.1748 66.628C79.4413 66.7349 79.6841 66.8932 79.8894 67.0939C80.0947 67.2946 80.2584 67.5337 80.3713 67.7977C80.4842 68.0617 80.5439 68.3453 80.5472 68.6324C80.5504 68.9195 80.4971 69.2044 80.3903 69.4709C80.2834 69.7373 80.1251 69.9802 79.9244 70.1855C79.7237 70.3908 79.4846 70.5545 79.2206 70.6674C78.9566 70.7802 78.673 70.84 78.3859 70.8433C55.0064 71.3971 38.0132 79.2233 27.8756 85.6883C16.8635 92.71 11.3167 99.7025 11.2613 99.7725C11.0578 100.033 10.7978 100.244 10.5009 100.389C10.204 100.535 9.878 100.611 9.54741 100.612Z" fill="rgb(50, 50, 206)"/>
</svg>
